<svg width="366" height="196" viewBox="0 0 366 196" fill="none" xmlns="http://www.w3.org/2000/svg">
<g filter="url(#filter0_d)">
<path d="M74.8563 156.64C72.5523 156.64 70.6749 156.064 69.2243 154.912C68.4989 154.4 67.9229 153.803 67.4963 153.12H67.1763L64.9363 156H59.4963V122.08C59.4963 119.904 59.1976 118.304 58.6003 117.28C58.0029 116.213 56.8083 115.68 55.0162 115.68H54.3762V113.76H62.0563C63.5923 113.76 64.7656 114.016 65.5763 114.528C66.3869 115.04 66.9629 115.893 67.3043 117.088C67.6456 118.24 67.8163 119.904 67.8163 122.08V127.2C68.3709 126.859 68.9683 126.539 69.6083 126.24C71.3576 125.6 73.0003 125.28 74.5363 125.28C78.9736 125.28 82.3656 126.752 84.7123 129.696C87.1016 132.597 88.2963 136.352 88.2963 140.96C88.2963 145.568 87.1229 149.344 84.7763 152.288C82.4723 155.189 79.1656 156.64 74.8563 156.64ZM73.5763 153.76C75.6669 153.76 77.2029 152.608 78.1843 150.304C79.1656 148 79.6563 144.885 79.6563 140.96C79.6563 132.427 77.5229 128.16 73.2563 128.16C72.0189 128.16 70.7176 128.48 69.3523 129.12C68.7549 129.461 68.2429 129.781 67.8163 130.08V149.6C68.2003 150.453 68.6696 151.157 69.2243 151.712C70.5043 153.077 71.9549 153.76 73.5763 153.76ZM95.7763 134.24C95.7763 132.064 95.4776 130.464 94.8802 129.44C94.3256 128.373 93.1523 127.84 91.3603 127.84H90.7203V125.92H97.0563C99.8296 125.92 101.643 126.731 102.496 128.352H102.752C105.099 126.304 107.787 125.28 110.816 125.28C112.907 125.28 114.72 125.685 116.256 126.496C117.835 127.264 118.966 128.075 119.648 128.928C120.672 127.819 121.888 126.944 123.296 126.304C124.704 125.621 126.518 125.28 128.736 125.28C136.203 125.28 139.936 129.205 139.936 137.056V156H131.616V136.992C131.616 134.048 131.147 131.893 130.208 130.528C129.27 129.163 128.032 128.48 126.496 128.48C125.344 128.48 124.278 128.715 123.296 129.184C122.315 129.611 121.547 130.187 120.992 130.912C121.078 131.083 121.248 131.552 121.504 132.32C121.846 133.6 122.016 135.179 122.016 137.056V156H113.696V136.992C113.696 134.048 113.227 131.893 112.288 130.528C111.35 129.163 110.112 128.48 108.576 128.48C107.68 128.48 106.742 128.757 105.76 129.312C104.822 129.824 104.118 130.4 103.648 131.04L103.84 131.936C104.011 132.448 104.096 133.28 104.096 134.432V156H95.7763V134.24ZM159.339 156.64C155.03 156.64 151.702 155.189 149.355 152.288C147.051 149.344 145.899 145.568 145.899 140.96C145.899 136.352 147.073 132.597 149.419 129.696C151.809 126.752 155.222 125.28 159.659 125.28C161.195 125.28 162.838 125.6 164.587 126.24C165.227 126.539 165.825 126.859 166.379 127.2V122.08C166.379 119.904 166.081 118.304 165.483 117.28C164.886 116.213 163.691 115.68 161.899 115.68H161.259V113.76H168.939C170.475 113.76 171.649 114.016 172.459 114.528C173.27 115.04 173.846 115.893 174.187 117.088C174.529 118.24 174.699 119.904 174.699 122.08V156H169.259L167.019 153.12H166.699C166.315 153.717 165.718 154.315 164.907 154.912C163.457 156.064 161.601 156.64 159.339 156.64ZM160.619 153.76C162.198 153.76 163.627 153.077 164.907 151.712C165.377 151.243 165.867 150.539 166.379 149.6V130.08C165.953 129.739 165.441 129.419 164.843 129.12C163.478 128.48 162.177 128.16 160.939 128.16C156.673 128.16 154.539 132.427 154.539 140.96C154.539 144.928 155.009 148.064 155.947 150.368C156.929 152.629 158.486 153.76 160.619 153.76ZM195.619 156.64C192.675 156.64 190.094 155.957 187.875 154.592C185.657 153.227 183.929 151.371 182.691 149.024C181.497 146.635 180.899 143.947 180.899 140.96C180.899 137.632 181.497 134.795 182.691 132.448C183.929 130.101 185.614 128.331 187.747 127.136C189.881 125.899 192.291 125.28 194.979 125.28C197.625 125.28 200.014 125.813 202.147 126.88C204.281 127.947 205.966 129.461 207.203 131.424C208.441 133.344 209.059 135.563 209.059 138.08C209.059 138.891 209.017 139.808 208.931 140.832L208.803 142.112H189.539C189.539 146.165 190.158 149.131 191.395 151.008C192.633 152.843 194.361 153.76 196.579 153.76C198.627 153.76 200.334 153.312 201.699 152.416C203.107 151.477 204.451 150.155 205.731 148.448L207.715 149.92C206.478 151.84 204.921 153.44 203.043 154.72C201.209 156 198.734 156.64 195.619 156.64ZM200.419 139.232C200.419 135.221 199.95 132.384 199.011 130.72C198.073 129.013 196.729 128.16 194.979 128.16C193.358 128.16 192.035 129.035 191.011 130.784C190.03 132.491 189.539 135.307 189.539 139.232H200.419ZM225.75 156.64C220.758 156.64 217.323 155.765 215.446 154.016C214.763 153.376 214.336 152.48 214.166 151.328C213.995 150.133 213.91 148.491 213.91 146.4H216.15C216.534 148.619 217.408 150.411 218.774 151.776C220.139 153.099 222.038 153.76 224.47 153.76C228.736 153.76 230.87 152.309 230.87 149.408C230.87 148.299 230.4 147.381 229.462 146.656C228.566 145.931 227.115 145.12 225.11 144.224L221.782 142.816C219.051 141.621 217.003 140.32 215.638 138.912C214.272 137.504 213.59 135.797 213.59 133.792C213.59 131.104 214.699 129.013 216.918 127.52C219.179 126.027 222.123 125.28 225.75 125.28C230.742 125.28 234.176 126.155 236.054 127.904C236.736 128.544 237.163 129.44 237.334 130.592C237.504 131.744 237.59 133.387 237.59 135.52H235.35C234.966 133.301 234.091 131.531 232.726 130.208C231.36 128.843 229.462 128.16 227.03 128.16C225.195 128.16 223.83 128.565 222.934 129.376C222.038 130.144 221.59 131.189 221.59 132.512C221.59 133.579 221.952 134.475 222.678 135.2C223.446 135.883 224.598 136.565 226.134 137.248L229.974 138.848C233.131 140.171 235.392 141.515 236.758 142.88C238.166 144.203 238.87 145.952 238.87 148.128C238.87 150.859 237.654 152.971 235.222 154.464C232.832 155.915 229.675 156.64 225.75 156.64ZM250.247 122.464C248.711 122.464 247.517 121.995 246.663 121.056C245.853 120.117 245.447 118.965 245.447 117.6C245.447 116.491 245.767 115.616 246.407 114.976C247.09 114.336 247.943 114.016 248.967 114.016C250.503 114.016 251.677 114.485 252.487 115.424C253.341 116.363 253.767 117.515 253.767 118.88C253.767 119.989 253.426 120.864 252.743 121.504C252.103 122.144 251.271 122.464 250.247 122.464ZM246.087 134.24C246.087 132.064 245.789 130.464 245.191 129.44C244.594 128.373 243.399 127.84 241.607 127.84H240.967V125.92H248.647C250.183 125.92 251.357 126.176 252.167 126.688C252.978 127.2 253.554 128.053 253.895 129.248C254.237 130.4 254.407 132.064 254.407 134.24V156H246.087V134.24ZM274.67 168.8C269.806 168.8 265.966 168.011 263.15 166.432C260.376 164.896 258.99 162.379 258.99 158.88C258.99 156.747 259.843 154.976 261.55 153.568C263.256 152.16 265.283 151.157 267.63 150.56C265.71 149.963 264.75 148.789 264.75 147.04C264.75 145.589 265.603 144.523 267.31 143.84C265.475 143.2 263.939 142.091 262.702 140.512C261.507 138.933 260.91 137.184 260.91 135.264C260.91 131.765 262.147 129.227 264.622 127.648C267.139 126.069 270.488 125.28 274.67 125.28H288.11V127.008L282.35 127.776C284.142 128.459 285.592 129.504 286.702 130.912C287.854 132.32 288.43 133.771 288.43 135.264C288.43 138.763 287.235 141.28 284.846 142.816C282.499 144.352 279.107 145.12 274.67 145.12C272.451 145.12 270.83 145.248 269.806 145.504C268.782 145.717 268.27 146.229 268.27 147.04C268.27 147.723 268.782 148.171 269.806 148.384C270.83 148.597 272.451 148.725 274.67 148.768C279.278 148.853 283.032 149.771 285.934 151.52C288.878 153.227 290.35 155.68 290.35 158.88C290.35 162.379 288.942 164.896 286.126 166.432C283.352 168.011 279.534 168.8 274.67 168.8ZM274.67 142.56C278.083 142.56 279.79 140.128 279.79 135.264C279.79 132.875 279.32 131.04 278.382 129.76C277.443 128.48 276.206 127.84 274.67 127.84C273.091 127.84 271.832 128.459 270.894 129.696C269.998 130.933 269.55 132.789 269.55 135.264C269.55 140.128 271.256 142.56 274.67 142.56ZM274.67 165.92C276.888 165.92 278.616 165.323 279.854 164.128C281.091 162.976 281.71 161.227 281.71 158.88C281.71 157.003 281.112 155.445 279.918 154.208C278.766 152.928 277.187 152.096 275.182 151.712L272.174 151.392C270.68 152.032 269.55 152.949 268.782 154.144C268.014 155.339 267.63 156.917 267.63 158.88C267.63 161.227 268.248 162.976 269.486 164.128C270.723 165.323 272.451 165.92 274.67 165.92ZM296.714 134.24C296.714 132.064 296.415 130.464 295.818 129.44C295.263 128.373 294.09 127.84 292.298 127.84H291.658V125.92H297.994C299.444 125.92 300.575 126.112 301.386 126.496C302.239 126.837 302.9 127.435 303.37 128.288C305.546 126.283 308.66 125.28 312.714 125.28C316.767 125.28 319.796 126.24 321.802 128.16C323.85 130.037 324.874 133.003 324.874 137.056V156H316.554V136.992C316.554 134.048 315.999 131.893 314.89 130.528C313.823 129.163 312.351 128.48 310.474 128.48C309.151 128.48 307.978 128.672 306.954 129.056C305.972 129.397 305.183 129.867 304.586 130.464L304.778 131.36C304.948 131.872 305.034 132.704 305.034 133.856V156H296.714V134.24ZM343.062 156.64C338.07 156.64 334.636 155.765 332.758 154.016C332.076 153.376 331.649 152.48 331.478 151.328C331.308 150.133 331.222 148.491 331.222 146.4H333.462C333.846 148.619 334.721 150.411 336.086 151.776C337.452 153.099 339.35 153.76 341.782 153.76C346.049 153.76 348.182 152.309 348.182 149.408C348.182 148.299 347.713 147.381 346.774 146.656C345.878 145.931 344.428 145.12 342.422 144.224L339.094 142.816C336.364 141.621 334.316 140.32 332.95 138.912C331.585 137.504 330.902 135.797 330.902 133.792C330.902 131.104 332.012 129.013 334.23 127.52C336.492 126.027 339.436 125.28 343.062 125.28C348.054 125.28 351.489 126.155 353.366 127.904C354.049 128.544 354.476 129.44 354.646 130.592C354.817 131.744 354.902 133.387 354.902 135.52H352.662C352.278 133.301 351.404 131.531 350.038 130.208C348.673 128.843 346.774 128.16 344.342 128.16C342.508 128.16 341.142 128.565 340.246 129.376C339.35 130.144 338.902 131.189 338.902 132.512C338.902 133.579 339.265 134.475 339.99 135.2C340.758 135.883 341.91 136.565 343.446 137.248L347.286 138.848C350.444 140.171 352.705 141.515 354.07 142.88C355.478 144.203 356.182 145.952 356.182 148.128C356.182 150.859 354.966 152.971 352.534 154.464C350.145 155.915 346.988 156.64 343.062 156.64Z" fill="white"/>
</g>
<g filter="url(#filter1_d)">
<path d="M154 86H15L88.7348 7L154 86Z" stroke="white" stroke-width="9"/>
</g>
<g filter="url(#filter2_d)">
<path d="M36 86V183H134V162.078" stroke="white" stroke-width="9"/>
</g>
<g filter="url(#filter3_d)">
<path d="M134 89V117" stroke="white" stroke-width="9"/>
</g>
<defs>
<filter id="filter0_d" x="50.3762" y="113.76" width="309.806" height="63.04" filterUnits="userSpaceOnUse" color-interpolation-filters="sRGB">
<feFlood flood-opacity="0" result="BackgroundImageFix"/>
<feColorMatrix in="SourceAlpha" type="matrix" values="0 0 0 0 0 0 0 0 0 0 0 0 0 0 0 0 0 0 127 0"/>
<feOffset dy="4"/>
<feGaussianBlur stdDeviation="2"/>
<feColorMatrix type="matrix" values="0 0 0 0 0 0 0 0 0 0 0 0 0 0 0 0 0 0 0.25 0"/>
<feBlend mode="normal" in2="BackgroundImageFix" result="effect1_dropShadow"/>
<feBlend mode="normal" in="SourceGraphic" in2="effect1_dropShadow" result="shape"/>
</filter>
<filter id="filter1_d" x="0.644348" y="0.184082" width="166.91" height="98.3159" filterUnits="userSpaceOnUse" color-interpolation-filters="sRGB">
<feFlood flood-opacity="0" result="BackgroundImageFix"/>
<feColorMatrix in="SourceAlpha" type="matrix" values="0 0 0 0 0 0 0 0 0 0 0 0 0 0 0 0 0 0 127 0"/>
<feOffset dy="4"/>
<feGaussianBlur stdDeviation="2"/>
<feColorMatrix type="matrix" values="0 0 0 0 0 0 0 0 0 0 0 0 0 0 0 0 0 0 0.25 0"/>
<feBlend mode="normal" in2="BackgroundImageFix" result="effect1_dropShadow"/>
<feBlend mode="normal" in="SourceGraphic" in2="effect1_dropShadow" result="shape"/>
</filter>
<filter id="filter2_d" x="27.5" y="86" width="115" height="109.5" filterUnits="userSpaceOnUse" color-interpolation-filters="sRGB">
<feFlood flood-opacity="0" result="BackgroundImageFix"/>
<feColorMatrix in="SourceAlpha" type="matrix" values="0 0 0 0 0 0 0 0 0 0 0 0 0 0 0 0 0 0 127 0"/>
<feOffset dy="4"/>
<feGaussianBlur stdDeviation="2"/>
<feColorMatrix type="matrix" values="0 0 0 0 0 0 0 0 0 0 0 0 0 0 0 0 0 0 0.25 0"/>
<feBlend mode="normal" in2="BackgroundImageFix" result="effect1_dropShadow"/>
<feBlend mode="normal" in="SourceGraphic" in2="effect1_dropShadow" result="shape"/>
</filter>
<filter id="filter3_d" x="125.5" y="89" width="17" height="36" filterUnits="userSpaceOnUse" color-interpolation-filters="sRGB">
<feFlood flood-opacity="0" result="BackgroundImageFix"/>
<feColorMatrix in="SourceAlpha" type="matrix" values="0 0 0 0 0 0 0 0 0 0 0 0 0 0 0 0 0 0 127 0"/>
<feOffset dy="4"/>
<feGaussianBlur stdDeviation="2"/>
<feColorMatrix type="matrix" values="0 0 0 0 0 0 0 0 0 0 0 0 0 0 0 0 0 0 0.25 0"/>
<feBlend mode="normal" in2="BackgroundImageFix" result="effect1_dropShadow"/>
<feBlend mode="normal" in="SourceGraphic" in2="effect1_dropShadow" result="shape"/>
</filter>
</defs>
</svg>
